<svg xmlns="http://www.w3.org/2000/svg" width="346" height="312" fill="none" viewBox="0 0 346 312">
  <path stroke="#000" stroke-linecap="round" stroke-width="2" d="M181.5 276l3.5-2h8.5l-1 2-6.5 1.5-4.5-1.5z"/>
  <path stroke="#000" stroke-linecap="round" stroke-width="5" d="M248.5 121c2.8-2.4 8.167-3.667 10.5-4 5.864-1.5 10.5 0 22 4s6 13 6.5 17.5-15.5 6.5-21 7-16 1-21.5-7 0-14.5 3.5-17.5z"/>
  <path stroke="#000" stroke-linecap="round" stroke-width="10" d="M25 97c1.5-9.167 6.3-29.7 13.5-38.5 9-11 11-19.5 29-29.5S89 9 104.5 8.5s41-7 49.5 0 52.5 30 57 28.5 16.5 4 33.5 2 33 6.5 42.5 12.5S310.5 64 321.5 75s19.5 37 18.5 47.5 4 31.5-18.5 57.5-75.5 39-83 44.5-18.5 1-27.5 23 2 48 3 51-44 10-48 7.5 5.5-33 0-44 2.5-12-26.5-20.5-24.5-7-39-10.5-18.5.5-23 10.5M34 116.5c-1.333 2.167-4.5 10.6-6.5 27-2.5 20.5-2.5 32.5 0 54S41 226.5 46 231s21.5 0 21.5-6.5 2-13.5 2.5-36.5-22-58.5-24-63c-1.6-3.6-8.667-8.5-12-10.5"/>
  <path stroke="#000" stroke-linecap="round" stroke-width="10" d="M22 99c-1.833 4.5-5.7 15.3-6.5 22.5-1 9 2.5 14.5 0 25s-4.5 17-5 31.5 0 26.5 2.5 36 10 17 21 26.5 20.5 11 33 11.5 19-25 20-38-2-41.5-7.5-56-9-18-12.5-29"/>
  <path stroke="#000" stroke-linecap="round" stroke-width="5" d="M155.5 22c-3.5-.5-11.6-.6-16 3M217.5 241.5c-1.333 4.5-2.7 13.8 2.5 15 6.5 1.5 8 1 11.5-9s8-19-3-12.5"/>
  <path stroke="#000" stroke-linecap="round" stroke-width="2" d="M261.5 129.5c-4-2 .333-5.5 3-7 .833.5 2.7 2.2 3.5 5 1 3.5-1.5 4.5-6.5 2zM273 129.5c1-2.5 3.5-3 5-3.5.667.5 1.9 1.9 1.5 3.5-.5 2-1.5 3-3.5 3.5s-4-1-3-3.5zM193 78.5c-1 .167-3.1 2.6-3.5 11-.5 10.5 1 11.5 3 13s7 1 8.5-.5 2.5-8 3-12.5.5-10-2-10.5-6.208-2.5-8.5-.5m-25-3c-.667-1-3-2.4-7 0-5 3-4.5 2-6.5 8s-3 11-3 14.5c0 2.8 1.667 5.833 2.5 7 1 .833 3.6 2 6 0 3-2.5 6-7 7-12 .8-4 1-13.333 1-17.5zM150.5 273h16c3.2 0 14-1.333 19-2 3.167-.667 11-1.8 17-1 7.5 1 8.5-1 10 0 1.2.8 1.167 2.667 1 3.5l2 2.5c1.167 0 3.4.4 3 2-.5 2 1 2-1.5 3s-6.5 1-8 1-2.5 1-4.5 0c-1.6-.8-5.667-1-7.5-1 .167 0-.5.6-4.5 3-5 3-12 6-16 6s-10-1-12.5-2-2-1-7-2.5c-4-1.2-6-3.5-6.5-4.5 0-1 .8-2.8 4-2 4 1 5 0 2.5-1.5s-5.5-2-6.5-2.5c-.8-.4-.667-1.5-.5-2"/>
  <path stroke="#000" stroke-linecap="round" stroke-width="3" d="M183.5 279.879c-1.372.222-4.674.098-5.811 1.234-.28.28.771-.201 1.165-.247.972-.114 1.939-.235 2.919-.247 2.113-.024 1.793.366-.11.549-1.236.118-2.456.305-3.645.671-.628.193-1.13.437-.26-.014 2.18-1.13 4.381-1.206 6.783-1.206 1.557 0-1.435 1.092-1.781 1.234-1.494.611-3.34 1.442-4.139 2.96-.141.268.421.013.494 0a35.64 35.64 0 013.987-.494c.363-.024 3.29-.672 2.481.137-.504.504-2.242 1.761-1.686 1.316.458-.366 1.639-2.203 2.385-1.905.212.085-1.121.687-1.165.699a27.028 27.028 0 01-3.919.795c-1.38.172-2.619.32-4.002.452-1.279.122-2.379.529-3.563-.26M161.647 284.17c-.71-.198-1.665-.322-2.268-.76-.142-.103-1.146-.108-1.09.143.089.4.496.549.841.673.475.171.854.466 1.283.704.382.212 1.422.632.493.013-.894-.596-1.899-.992-2.779-1.602-.421-.291-1.03-.328-1.502-.517-.899-.359-1.882-.7-2.71-1.184-.244-.142-.446-.443-.624-.66-.422-.516-.402-.524.331-.349.96.23 1.922.666 2.891.822.775.125 1.682.109 2.386.474.994.515 2.012.718 3.085.897M161.647 281.142c-.045-.736-.402-.885-1.115-.885-.299 0-1.153.274-.854.274.4 0 1.682-.649.623.05-.261.173-.537.438-.828.555-.233.093.192-.463.292-.692.476-1.088 1.225-2.264 2.082-3.09.134-.13.624-.761.81-.761.475 0 .571 1.139.56 1.433-.009.264-.737.861-.872.511-.186-.484-.451-.845-.972-1.009-1.182-.371-2.2-1.306-3.34-1.745-.756-.291-1.594-.475-2.33-.785-.551-.232-1.42-.585-2.019-.585-.455 0-1.801-.225-1.346-.225M158.17 274.749c1.692.471 3.341.49 5.079.567 1.046.047.608.544-.144.555-.079.001-1.613-.071-1.227-.393.249-.208 1.26.317 1.564.393"/>
  <path stroke="#000" stroke-linecap="round" stroke-width="3" d="M173.536 277.553c-.423.603-1.013 1.043-1.396 1.67-.219.358.739.329 1.035.461 1.67.747-.98 1.696-1.633 2.106-.394.247.716.461.978.586.603.285.875.519.206.897-.574.324-1.614.461-2.056.947-.064.07 1.075.611 1.146.648.726.378 1.473.723 2.181 1.134.947.55-.512.245-.822.162-.751-.201-1.485-.424-2.269-.424-.338 0-1.109.063-.953.611.042.147.691.352.829.399.575.195 1.149.27 1.738.392.416.087.82-.056 1.24-.056.424 0 .821.11 1.234.2.765.165 1.685.025 2.467.025.641 0 .293-.047-.18 0-.942.092-1.78.094-2.711-.113-.813-.18-1.513-.826-2.355-.585-.477.136-1.008.026-1.427.361-.571.457 1.254.808 1.402.841.698.159 1.611.169 2.33.169.738 0 1.452-.081 2.181-.113 1.03-.044 1.956-.276 2.947-.448.779-.136 1.692-.145 2.412-.505.682-.341 1.347-.747 2.012-1.122.793-.445 1.633-.665 2.474-1.009.817-.334 1.376-.891 2.131-1.29.777-.41 1.515-.897 2.331-1.233.614-.254 1.234-.459 1.863-.673.407-.139.964-.22 1.327-.449.536-.337 1.211-1.091 1.825-1.228.42-.093.824-.245 1.234-.336.889-.198-.756.693-.991.779-.362.132-.716.336-1.14.336-.677 0-.985.2-.28-.448.406-.373 1.052-.683 1.576-.835.682-.198 1.43-.474 2.125-.598 1.036-.185 1.996-.025 3.022-.025.398 0 .766.224 1.184.224.485 0 .744.416 1.178.561"/>
  <path stroke="#000" stroke-linecap="round" stroke-width="3" d="M197.201 272.954c-.706 1.728-1.261 3.658-3.034 4.493-.519.244-1.056.433-1.589.642-.083.032-.988.308-1.047.249-.147-.147 1.682-1.104 1.383-.897-.385.266-.814.466-1.202.729-.57.385-.709.496-.081-.069 1.47-1.323 3.006-2.109 4.044-3.838.178-.298-.085.074-.156.15a15.9 15.9 0 00-1.259 1.507c-1.035 1.407-2.564 2.272-3.925 3.315-.406.311-.873.507-1.265.841-.317.271-.621.531-1.016.673-.427.154-.861.261-1.277.443-.484.212.468-.253.536-.281a89.758 89.758 0 015.003-1.85c.857-.291 1.712-.567 2.605-.723.012-.002.602-.125.324.087-.763.584-1.616 1.034-2.368 1.658-.145.12-1.221 1.011-.586.361.372-.38.752-.752 1.128-1.128.077-.077-.357.099-.361.1-.681.197-1.364.38-2.05.555-1.421.361-2.83.774-4.225 1.227-.587.191-1.062.393-1.689.393-.115 0-.73.088-.517-.075.688-.526 1.447-.821 2.281-1.047.47-.128 1.631-.233.486-.137-1.678.141-3.377.186-5.06.224-1.732.039-3.421-.216-5.109-.585-.105-.023-1.72-.542-1.72-.113 0 .711 3.611 1.509 2.38 2.187-.841.464-3.824.299-2.878.131.772-.137 1.795.073 2.442.511.545.369-.745.361-.86.362-.797.007-1.494-.032-2.255-.268-.676-.21.076-.052.355 0 1.043.191 2.565.362 3.389 1.09.247.218-1.401.092-1.532.062-1.078-.239-2.092-.694-3.11-1.109-.657-.268-1.221-.453-.274-.673 1.725-.399 7.03-.827 5.284-.535-1.39.231-4.004-.828-4.542-2.194-.172-.435.149-1.068.523-1.296.784-.477 1.96.404 2.617.723 1.181.574 2.537 1.249 3.845 1.483.338.06-.102-.226-.137-.249-.729-.477-1.531-.869-2.318-1.234-2.618-1.215-5.397-2.008-8.038-3.153-.57-.247.23-.268.436-.249.759.069 1.492.242 2.218.467.398.124.379-.177.542-.505.277-.553.515-1.203 1.066-1.545.3-.186 1.338-.445 1.022-.286-.599.299-1.433.405-2.082.548-.113.025-1.262.259-.616.118.758-.165 1.559-.168 2.33-.168.135 0 1.601-.042.829.006-.636.04-1.256.106-1.895.106-.413 0 .514-.28.623-.311 2.299-.657 4.914-.607 7.278-.923.907-.12 1.869-.619 2.779-.554.973.069 1.804.004 2.742-.287 1.322-.41 2.924-.617 4.312-.617.787 0 1.572.138 2.355.225 1.008.112 2.13.039 3.097.336.477.147 1.898.241 1.202.922-.757.741-1.865 1.236-2.804 1.695-.649.318.056-.571.187-.822.151-.29.445-.601.493-.935.073-.513-.675.795-.929 1.246-.59 1.05.528-1.404.031-.081-.496 1.325-1.908 2.204-3.047 2.91-.251.156-.842.205-1.009.449-.266.387-.889.595-1.321.729-1.38.428-2.803.677-4.206 1.009-2.321.55-4.588-.04-6.611-1.265-.761-.46-1.606-.771-2.013-1.651-.124-.27-.587-.996-.454-1.227.113-.198.766-.364.959-.262.598.316-1.385 1.376-1.558 1.408-.351.065.217-.532.281-.598.518-.54 1.341-.816 2.05-.997.607-.155 1.427-.526.567.162-.055.044-.107.263-.031.312.151.096.919-.426 1.096-.486.328-.112 1.216-.604.873-.561-.141.017-.92.762-1.041.909-.404.495-.85.897-1.115 1.502-.335.765 2.263.576 2.766 1.041.714.659 1.672.695 2.443 1.208"/>
  <path stroke="#000" stroke-linecap="round" stroke-width="3" d="M200.678 271.945c-.319.1-1.006.091-1.271.28-.287.205.688-.15 1.034-.218.175-.034.952-.195 1.059.05.051.115-1.806.224-1.919.225-.092 0-1.479-.019-1.464-.057.112-.278 1.427-.164 1.589-.155.71.036 1.41.156 2.112.261.285.043 1.052.035.835.225-.163.143-.632.018-.797-.013-.896-.164-1.777-.422-2.655-.66-1.137-.308-2.266-.662-3.408-.947-.481-.12.947.291 1.408.473.96.379 1.966.603 2.929.972.405.155.887.398.299.692-1.117.558-2.395.826-3.564 1.252-.811.296-1.656.577-2.43.96-.141.069-.433.243-.1.249 1.103.021 2.228-.232 3.327-.311.139-.01 1.255-.061.586.199-.852.33-1.79.423-2.654.729-.152.053-1.703.556-.835.611 1.249.078 2.558-.271 3.788-.081 1.178.181-1.156.747-1.502.747-1.517 0 .327-1.16.736-1.333 2.063-.873 4.124-1.228 6.299-.536.136.043 1.431.512 1.209.586-.38.126-.885.067-1.271.05-1.209-.054-2.408-.223-3.614-.306-.946-.065-1.896-.095-2.841.006-.122.014-1 .069-1.097.287-.064.145.315-.039.473-.037.551.006 1.116.115 1.658.199 1.003.156 2.127.314 3.016.848.185.111.174.336.074.137M211.669 273.74c.741.377 2.316.919 2.636 1.738.205.524.5.909.841 1.346.271.346.861.643.15.785-.569.114-1.134.198-1.701.33-.62.145.119.15.424.231.086.023.983.236.853.392-.254.306-.974.407-1.321.561-.403.179-1.349.536-.386.561.638.017 1.265.112 1.907.112.425 0 1.027-.575 1.283-.897.3-.378.147-.795.474-1.122M269.838 127.841c-.503 1.045-1.047 2.329-1.047 3.511 0 .4.059-.023.145-.189.285-.548.457-1.097.64-1.686.225-.723.654-2.93.654-2.174 0 .597-.158 1.24-.29 1.818-.082.354-.5 1.17-.335 1.541.001.002.697-1.517.749-1.803.06-.329-.295.601-.458.894-.485.873-.993 1.726-1.578 2.537-.73 1.013-1.879 2.399-3.22 2.588-1.584.223-3.196-.233-4.783-.233-.814 0-1.599.172-2.195-.472-.758-.818-1.096-2.1.254-2.45 1.032-.267-.013 1.055-.24 1.25-2.003 1.729-5.326 1.465-7.153-.45-1.585-1.663.105-3.178 1.999-3.017 2.008.17.066 1.908-.69 2.384-.846.533-3.001 1.344-3.228-.312-.147-1.074.613-3.071 2.007-2.864 1.611.238-2.706 3.097-2.828 3.169-.814.477-2.26 1.573-3.279 1.505-.058-.004.438-.894.487-.989.898-1.728 1.802-3.645 3.206-5.023.526-.516-.038 1.179-.073 1.294a41.405 41.405 0 01-1.715 4.681c-.012.027-.593 1.558-.349.727.721-2.45 1.313-4.884 1.701-7.414.257-1.678.221-3.658.872-5.256.228-.558.149.178.131.327-.244 2.055-.449 4.12-.654 6.179-.17 1.706-.62 3.842-.291 5.568.273 1.434.523-2.872.727-4.318.083-.586.076-1.377.393-1.904.478-.798-.86 1.65-1.309 2.464-.759 1.377-1.493 2.769-2.282 4.129-.169.29-.059.082-.015-.065.204-.674.363-1.365.487-2.058.377-2.104.384-4.23.4-6.36.005-.697-.074-1.461.233-2.108.097-.206 0 .588 0 .596-.17 2.374-.329 4.746-.626 7.109-.184 1.473-.394 2.946-.705 4.398-.171.797.011-.09.073-.334.476-1.877.752-3.786 1.156-5.678.243-1.141.466-2.464 1.039-3.503.124-.225.269-.46.269-.059 0 2.078-.337 4.157-.625 6.208-.173 1.233-.527 2.607-.422 3.868.02.235.098-.464.131-.698"/>
  <path stroke="#000" stroke-linecap="round" stroke-width="5" d="M284.885 131.243c0 1.927-.354 3.383-1.301 5.089-.425.764-1.168 1.887-1.97 2.311-.546.29-.188-.123 0-.363.959-1.226 1.765-2.545 2.348-3.991.5-1.241 1.316-2.716 1.316-4.092 0-.349-.351-.441-.589-.669-.498-.477-.996-1.159-1.36-1.745-.274-.443-.265-.933-.436-1.41-.176-.494-.608-.94-.857-1.41-.382-.722-2.205-1.044-2.981-1.185-.871-.159-1.828-.501-2.675-.778-.853-.279-1.859-.347-2.74-.523-.95-.19-1.741-.469-2.625-.887-1.125-.532-2.384-.536-3.562-.873-2.168-.619-4.367-.857-6.636-.857-1.467 0-2.668.516-3.933 1.148-.636.318-2.002.973-2.384 1.599-.361.59-1.127 1.03-1.549 1.636-.112.162-1.482 2.264-1.555 1.752-.092-.641.705-1.265.937-1.817.419-.995-2.138.221-2.195-.291-.083-.75 5.379-.385 5.75-.633.243-.162.333-.568.632-.748.53-.318 1.118-.603 1.672-.88.931-.465 1.809-.789 2.675-1.367.525-.349-.777 1-1.235 1.433-.632.596-1.356 1.06-1.963 1.701-.409.431-.455 1.13-.727 1.635-.284.528-.651.975-.916 1.505-.223.447-.764.737-1.207.916-1.469.595-.303-1.021.335-.596.685.456-.145 1.477-.56 1.708-.73.406-1.121-.187-.167-.298 1.716-.2 1.05 2.413.741 3.235-.151.404-1.101 1.632-1.628.894-.402-.563.034-1.492.422-1.919.557-.615 1.399-.744 2.13-.4.109.051 1.26.69.923.88-.308.173-.627-.504-.713-.698-.277-.63-.276-.983-.072-1.629.121-.386.169-.79.29-1.177.127-.403.561-.719.822-1.04.373-.459.863-.602 1.178-1.126.148-.249.923-1.367.923-1.629 0-.209-.304.289-.466.422-.492.406-.983 1.023-1.366 1.534-1.276 1.701-.422 4.527 1.628 5.081.949.256 1.867.803 2.806 1.141.849.306 1.469.831 2.421.713 1.28-.16 2.57-.309 3.54-1.171.74-.658 1.93-.622 2.457-1.57.495-.891-.212-2.106.225-3.068.288-.634-.165-1.908-.356-2.529-.273-.888-.897-1.672-1.745-2.058-.556-.253-.935-.223.073-.196.865.024 1.844.345 2.682.531.26.058.885.105 1.084.283.242.219.571.951.552 1.28-.012.203-.456.801-.596.981-.17.218-.746.962-.247.327.786-1 2.175-1.447 3.329-1.832"/>
  <path stroke="#000" stroke-linecap="round" stroke-width="5" d="M282.922 125.879c-.215 1.196-.183 1.797-.007 2.944.017.11.306 2.248.24 2.231-.193-.048-.172-2.043-.203-2.268-.096-.681-.369-1.218-.553-1.861-.103-.359-.395-.635-.523-.988-.096-.262-.544-1.185-.524-.451.048 1.726.524 3.412.524 5.154 0 1.32-.67 2.394-1.018 3.613-.31 1.084-1.416 2.016-2.377 2.544-.415.228-1.492 1.096-1.236.698.517-.804 1.169-1.517 1.723-2.297.417-.587.671-1.247 1.076-1.832.299-.432.342-.329.058.036-.888 1.142-2.607 1.582-3.925 1.898-1.379.33-2.262.118-3.591-.262-.635-.182-1.677-.546-1.992-1.178-.217-.434-.251.284-.364.524-.281.595-.647 1.149-.458 1.832.093.333.866.973.64 1.25-1.011 1.236-3.255 1.421-4.674 1.279-1.906-.19-3.808-.592-5.67-1.032-.398-.094-.808-.21-1.221-.189-.662.033-1.291.262-1.978.262a21.36 21.36 0 01-4.616-.524c-.549-.122-1.77-.051-2.071-.654-.275-.55-.978-.8-1.142-.065-.21.947.877 1.533 1.563 1.766.745.253 1.404.619 2.123.916.82.339 1.685.421 2.515.72 1.042.375 2.136.304 3.213.559 1.375.326 2.914.684 4.325.684h.051c-1.099 0-2.238.109-3.329.232-.99.112-3.971-.258-2.988-.094 3.143.524 6.255.301 9.399.022a69.251 69.251 0 005.699-.749c.873-.151 1.75-.264 2.625-.4 1.204-.187 2.547-.221 3.714-.581.598-.185 1.272-.273 1.832-.553.028-.014.419-.188.407-.073-.034.34-1.05.515-1.265.56-1.544.323-2.957-.005-4.492-.189-1.143-.137-2.492-.005-3.577-.429-.798-.312-4.515-1.466-3.954-2.588.335-.67.938-.665 1.497-.945.611-.305 1.091-.952 1.498-1.475.131-.169.181-.639.211-.851.085-.594-.008-.147-.008.131M261.464 121.692c-.167.977.037.654.654.654M164.243 76.736c-1.742 2.09-3.985 3.75-5.335 6.18-.789 1.419-1.427 2.873-2.107 4.342-.753 1.626-1.677 3.138-2.245 4.844-.989 2.966-.216 5.753 2.004 7.85.435.411 2.235.521 2.691.167 1.914-1.489 2.937-3.568 3.823-5.846.888-2.284 1.548-4.617 2.338-6.931.751-2.2 1.357-4.257 1.512-6.588.061-.916-.009-1.678-.009-2.552 0-1.444-2.106-1.759-3.303-1.8-.687-.024-2.136.89-2.71 1.336-.495.386-1.138.47-1.586.919-.465.464-1.064.832-1.578 1.243-2.062 1.65-3.377 4.676-3.887 7.228-.22 1.097-.256 2.062-.297 3.174-.042 1.131-.377 2.286-.037 3.433.302 1.02.156 2.294.371 3.368.185.924.414 2.3.928 3.108.348.548.704 1.105.742 1.745.023.388 1.523.681 1.874.668.598-.023 1.646-.514 2.051-.919.341-.341.789-.532 1.16-.835.341-.279.436-.761.76-1.085.617-.617 1.098-1.744 1.587-2.506.508-.79 1.099-1.864 1.42-2.746.214-.588.346-1.257.668-1.8.358-.605 1.076-2.045-.074-1.3-1.874 1.215-3.952 2.47-5.345 4.26-.562.722-1.089.915-1.846 1.336-.749.416-1.097-1.332-1.086-1.754.05-1.862 1.777-3.93 2.635-5.474.814-1.466 1.273-3.084 2.004-4.547.437-.873 1.07-1.76 1.374-2.672M194.473 79.074c-.43 1.027-1.13 2.01-1.41 3.09-.204.786-.232 1.594-.39 2.385-.357 1.786-.371 3.484-.371 5.298 0 1.504-.155 3.133.25 4.593.273.983.127 2.215.919 3.006 1.55 1.55 2.904 2.747 5.02 1.16 2.747-2.06 4.309-4.82 5.428-8.017.485-1.385.575-3.208.575-4.676 0-1.375-.089-3.234-.668-4.5-.415-.909-.752-1.9-1.68-2.422-.952-.536-2.066-.458-3.126-.418-2.309.09-4.227 2.363-5.299 4.176-2.114 3.579-3.256 7.505-3.256 11.682 0 2.046.088 3.772 1.503 5.354.185.207.534.694.668.927.253.444.943.708 1.373.947 1.385.769 3.172.533 4.38-.455 1.152-.943 2.274-1.631 3.266-2.765 1.061-1.212 1.686-3.154 2.171-4.667 1.052-3.281.835-6.647-.297-9.817-.508-1.422-1.576-1.497-2.709-.705-2.467 1.722-3.296 5.644-3.749 8.425-.047.286-.397 2.906-.093 1.689.431-1.723.702-3.702 2.004-5.03.848-.863.892-.101.817.706-.137 1.468-1.48 4.547-3.146 4.88-.322.065-.886-.116-1.178.056-.452.266-.167 2.116-.167 2.533 0 1.587.176.225.334-.566.646-3.228 1.333-6.596 1.633-9.872.071-.771-.532-2.903-.13-3.406.281-.35.894-.438 1.299-.547.392-.106.037.606.037.798M164.781 80.914c.958-2.454.926-1.742 0-.354"/>
  <path stroke="#000" stroke-linecap="round" stroke-width="5" d="M200.855 84.804c-.214.42-2.034 4.776-.884 2.476.973-1.946 1.179-.769.884.707M31.988 122.368c-.732 1.921-1.244 3.973-1.825 5.931-.41 1.387-.213 3.165-.771 4.492-1.084 2.574-1.51 5.734-1.51 8.527 0 4.151-.631 8.351-.631 12.563 0 4.002.58 7.674 1.263 11.598.28 1.612.507 3.549 2.51 3.299 1.44-.181 3.45-1.836 4.438-2.825 1.321-1.321 2.828-2.437 4.106-3.79 1.162-1.231 1.617-2.953 2.351-4.422a93.118 93.118 0 002.86-6.316c.426-1.041.764-2.159 1.264-3.159.039-.079.879-2.07.79-2.07-.654 0-2.14 3.733-2.282 4.281-.754 2.934-1.769 5.773-2.614 8.685-2.39 8.23-2.674 16.928-3.79 25.407-.597 4.539-.79 9.342-.79 13.914 0 4.668-.07 12.194 4.738 14.598 1.13.565 2.526.877 3.79.877.936 0 3.855.532 4.562-.175.886-.887 1.62-3.336 1.772-4.544.183-1.467.93-2.584.93-4.124 0-1.076.136-3.222-.948-3.86-1.41-.829-2.88-1.727-4.246-2.597-1.137-.723-2.777-1.754-4.123-1.754-.88 0-3.213.109-3.632.947"/>
  <path stroke="#000" stroke-linecap="round" stroke-width="5" d="M47.78 145.424c-.86 5.371-.847 10.987-.948 16.423-.06 3.231-.66 6.532-.298 9.791.26 2.332 1.176 4.226 1.947 6.386 1.413 3.954 2.276 8.27 4.106 11.932 1.182 2.364 4.277 6.963 7.019 3.474 1.048-1.334 2.658-3.094 3.263-4.668.32-.829.557-1.21.72-2.105.137-.754.183-1.835.456-2.544.932-2.423.32-5.247.86-7.738.403-1.867.467-4.351-.228-6.159-2.051-5.331-3.32-11.068-5.65-16.247-.7-1.554-1.18-3.775-2.404-5.071-1.02-1.08-1.551-3.46-2.843-4.106"/>
  <path stroke="#000" stroke-linecap="round" stroke-width="5" d="M49.043 145.74c-.446.589-1.49 3.089-1.193 1.754.187-.842.64-5.491 1.439-5.72.628-.179-.805 1.105-.878 1.755-.081.734-1.07 2.141-1.42 2.842-3.225 6.449-5.803 13.084-7.739 20.143-.875 3.193-1.263 6.816-1.263 10.107 0 3.171.632 12.663.632 9.492 0-3.622.179-7.413-.334-11.001-.254-1.782-.524-.573-1.245.508-1.597 2.395-2.148 5.19-3.404 7.703-.073.146-.07-1.454-.07-1.754 0-1.543.102-3.028.245-4.562.082-.877.07-1.754.07-2.632 0-.801-.378 1.557-.631 2.316-.244.731-.632 1.531-.632 2.316v-2.632c0-3.523 1.16-4.665 4.404-6.001.475-.195 2.093-1.002.755-.245-1.598.902-3.296 1.498-4.79 2.596-.59.434-1.982 2.144-1.562 1.544.482-.688.665-1.97 1.017-2.772.72-1.636.059.03-.14.772-.562 2.099-1.13 4.065-1.439 6.229-.329 2.305-.772 4.562-.772 6.896 0 .344.752-1.693.948-2.141.367-.843.613-2.927 1.403-3.492.153-.108-.05 3.129-.07 3.387a26.963 26.963 0 00.246 6.246c.067.421.24 1.05.386.351.355-1.696.702-3.387 1.035-5.088.027-.138.493-2.603.228-1.439-1.05 4.617-1.965 9.195-1.965 13.949 0 2.729 1.755 4.968 2.527 7.475.323 1.049.336 2.177.79 3.175.06.136.491 2.537.719 2.281.364-.41.07-2.154.07-2.632v-6.386c0-1.053.702-5.035-.07-6.001-.525-.656.032-3.05-.562-2.456-.214.213 0 1.815-.017 2.105-.096 1.524-.299 2.993-.299 4.527 0 4.969 4.289 8.644 6.808 12.422.633.949 1.403 2.545 2.351 3.159.308.199 1.226 1.683.632 1.403-.72-.338-1.193-.973-1.772-1.509-1.49-1.379-3.178-2.538-4.72-3.86-3.108-2.664.495 3.013 1.263 3.843.434.468 1.44 1.209 1.44 1.948 0 .136-.115-.255-.211-.351-.458-.458-1.034-.826-1.527-1.246-.187-.159-2.143-1.802-1.28-.965.888.862 1.885 1.623 2.86 2.386 2.233 1.748 3.776 3.836 5.842 5.685.958.857 2.417 1.19 3.404 2.141.7.673 1.665 1.728-.246 1.263-1.791-.436-1.953-1.169-2.596-2.457-.176-.351.468.291 1.052.492 1.879.646 3.628 1.183 5.615 1.403 2.521.281 6.398-.1 7.773-2.544.808-1.436 1.594-2.863 2.193-4.404.063-.161.224-1.379.176-.947-.144 1.293-1.773 2.739-2.667 3.544-1.04.936-3.181 2.118-3.896 3.404-.498.898-1.262 1.539-2.35 1.579-1.004.037-2.015 0-3.019 0-.575 0 .5-.041.72-.193 1.194-.826 2.504-1.562 3.614-2.509 4.297-3.665 5.07-8.032 6.492-13.089 1.08-3.838 2.053-7.361 2.053-11.37 0-1.355.093-2.611.386-3.93.323-1.456 1.716-5.62.877-4.387-.965 1.419-1.541 3.149-2.368 4.65-.94 1.704-2.008 3.21-2.299 5.176-.35 2.363-.85 5.024-1.491 7.334-.578 2.078-.458 4.475-1.281 6.475-.922 2.237-2.077 4.241-3.597 6.141-.901 1.126-6.194 6.115-6.194 2.474 0-.932.291-1.871.491-2.773.136-.611-.175-.982-.175-1.263 0-.426.71-.367-.368-.807-1.279-.521-2.603-.962-3.983-1.088-.437-.04.888.196 1.228.474.662.541 1.63.807 2.421 1.105 1.474.557 2.905.285 4.352-.175 4.389-1.397 7.702-7.4 8.194-11.826.071-.644.381-2.662-.65-1.86-2.23 1.735-5.177 4.118-6.21 6.843-.607 1.598-1.966 6.447-1.966 4.737 0-2.08 1.263-4.11 1.263-6.246 0-1.209-.431-2.978-.79-4.123-.46-1.474.03-2.916-.631-4.387-.45-1.002-.745-2.086-1.263-3.018-1.159-2.085-2.039-2.955-4.194-4.264-.675-.409-4.692-3.606-5.123-3.403-.855.402-2.211 3.705-2.211 3.246 0-4.11 5.517.693 6.773 1.245 1.767.778 5.867 1.932 6.878 3.65.347.591 3.466 5.223 4.035 4.983 2.067-.87 5.621-5.512 1.246-4.966-1.007.126-2.002.93-2.983.93-2.02 0-3.56-.212-5.369-1.263-1.844-1.071-3.667-1.905-4.737-3.807-.884-1.572-2.59-2.629-3.246-4.334-.373-.97-1.256-1.669-1.72-2.597-.47-.939-.794-1.905-1.263-2.843-.857-1.714.072-1.192 1.088 0 2.065 2.425 4.23 4.521 6.72 6.457.882.687 2.184.971 3.14 1.58.94.598 1.484 1.564 2.37 2.228 1.194.895-.47-.535-.948-1.281-.886-1.385-1.776-2.733-2.825-4-.7-.845-2.042-2.001-2.456-3.018-1.11-2.723-2.892-5.075-3.615-7.966-.64-2.559-.877-5.432-.877-8.071 0-1.748.316-3.446.316-5.176v-2.404 2.93c0 5.425 1.596 9.343 4.421 13.738 1.288 2.004 2.377 5.105 2.527 7.51.09 1.452-.698-2.836-1.264-4.176-.895-2.122-2.303-4.354-2.509-6.72-.362-4.171-.017-8.137-.017-12.3 0-1.881-.632-3.697-.632-5.544"/>
  <path stroke="#000" stroke-linecap="round" stroke-width="5" d="M48.096 149.845c1.19 5.136.86 10.549 1.895 15.722.57 2.855-.045 5.746.386 8.597.408 2.707.986 5.159 1.579 7.826.41 1.843 1.648 3.729 2.456 5.439.585 1.238 1.373 2.554 1.825 3.86.293.846.203 1.377.088.228-.186-1.854-.24-3.577-.65-5.422-.764-3.439-1.448-7.145-1.579-10.668-.095-2.585-.957-5.311-1.263-7.913-.64-5.438-.877-11.051-2.21-16.388-.29-1.159-.948-4.651-.948-3.456 0 2.782-.305 5.383.158 8.159 1.104 6.624 1.47 13.315 2.825 19.897.976 4.741 1.417 9.885 2.947 14.475.92 2.759 3.995 5.292 7.019 5.124 4.306-.24 2.606-10.755 2.28-12.949-.303-2.051.322-4.297-.14-6.317-.274-1.199-.614-2.377-.947-3.544-1.367-4.785-1.757-9.676-3.246-14.441-.422-1.348-1.012-2.633-1.421-3.965-.425-1.38-.626 1.3-.632 1.667-.024 1.504.108 3.011.474 4.474a428.158 428.158 0 002.842 10.756c1.105 3.977 2.053 8.332 2.053 12.493v7.72"/>
  <path stroke="#000" stroke-linecap="round" stroke-width="5" d="M36.41 162.794c4.401-4.401 5.404-11.089 5.685-17.125.233-5.023 1.579-9.917 1.579-15.019v-3.93 6.773c0 3.86.364 7.681.316 11.545-.022 1.729-.187 3.581-.386 5.299-.033.284-.657 2.518-.492 1.263.806-6.096.568-12.294-.386-18.353-.4-2.539-.493-5.18-.07-7.72.452-2.711 1.018-5.207 1.018-7.966 0-.535.038-2.699-.07-2.387-.96 2.772-.878 5.696-.878 8.598 0 6.176-.336 12.238.07 18.423.145 2.193.226 4.745.808 6.878.005.019.9-3.267 1.017-3.965.456-2.708.632-5.328.632-8.071 0-1.245.014-4.927.316-3.72 1.008 4.035.894 8.113 1.509 12.212.217 1.448.07-2.207.07-2.632v-5.229c0-.572-.523 2.34-.702 2.843-1.324 3.733-2.944 7.421-4.597 11.019-2.204 4.799-2.863 9.538-4.492 14.423-.461 1.385-.902 3.151-1.649 4.421-.38.646-1.63 1.783-1.263.316.386-1.546.656-3.157 1.088-4.667.384-1.345.419-3.097.947-4.352.793-1.882-.486-.116-.947.808-.819 1.636-1.029 3.27-1.58 4.983-.836 2.603.114-.691.316-1.58.377-1.656 1.127-3.14 1.825-4.667 1.392-3.045 2.445-6.453 2.86-9.773.174-1.388.771-2.732.912-4.141.129-1.284.106-2.872.492-4.106.269-.861.123-1.783.316-2.667.226-1.04.687-2.083.772-3.14.12-1.499.083-3.265.35-4.738.62-3.406.299-7.1.299-10.597 0-2.089.662-3.375 1.404-5.071.221-.507.233-1.269.649-1.685.093-.093-.158.974-.158 1.229 0 1.374-.165 2.624-.299 3.965-.5 5.012-.938 11.235.755 16.072.461 1.318.61 1.084.965-.333.572-2.287.79-4.506.79-6.861v-5.527-.386c0 5.389-.71 10.595-1.246 15.95-.538 5.379-1.525 10.709-1.913 16.142-.455 6.368-1.348 12.744-2.053 19.09-.292 2.631.474 5.196.474 7.755 0 4.839 2.73 9.598 3.457 14.318.413 2.684 2.646 5.186 3.509 7.773 1.045 3.136 3.463 5.741 4.544 8.983.806 2.418-.983 3.323-3.14 4.281-3.793 1.686-6.923-2.861-9.177-5.544a29.617 29.617 0 01-4.088-6.334c-.952-1.978-3-4.804-3-7.071M23.699 90.507c-.8 2.45-3.142 4.227-3.726 6.797-.23 1.012-.864 2.08-1.246 3.058-.056.141-.602 1.351-.553 1.4.018.018.727-1.538.784-1.657.605-1.281 1.1-2.613 1.734-3.88.411-.823.862-1.67 1.067-2.57.34-1.497 1.217-3.073 2.055-4.33.173-.259.398-.52.553-.784.261-.444-.17.384-.257.489-.863 1.045-1.445 2.184-2.12 3.353a59.47 59.47 0 00-3.585 7.349c-.89 2.189-1.25 4.517-1.67 6.822-.17.938-.206 1.87-.206 2.827 0 .848.232 1.685.232 2.518M27.63 97.098c-.784 1.984-2.048 3.762-3 5.666-.964 1.928-2.193 3.738-3.064 5.718-.929 2.111-3.293 8.602-2.261 6.539M177.759 17.727c2.103-.715 4.854-1.198 6.942-.093.42.223.692.59 1.083.836.487.306 1.224.421 1.774.598 1.653.531 2.746.82 3.94 2.084 1.407 1.49 3.111 2.607 4.6 4.043.792.764 1.672 1.591 2.352 2.465.287.369-.082 0-.082.031 0 .396.234.775.474 1.083.47.605 1.269.99 1.898 1.393.358.229-.604-.547-.712-.67a175.969 175.969 0 00-2.032-2.29c-1.203-1.338-2.66-2.417-3.899-3.724-.815-.861-1.494-1.885-2.506-2.59-.908-.63-1.8-1.184-2.878-1.454-1.003-.25-2.199-.329-3.156-.701-2.394-.93-5.114-.078-7.427-1.052-.882-.372-1.69-.6-2.517-1.073-.657-.375-1.269-.789-1.939-1.114-2.496-1.213-4.712-3.116-7.282-4.126-1.151-.452-2.319-1.226-3.476-1.733-1.004-.439-1.89-1.176-2.94-1.526-1.113-.371-2.273-.533-3.373-.877-.773-.242-1.807-.187-2.486-.64-.545-.363 1.312.04 1.96.134 1.49.217 2.954.56 4.415.929 2.454.62 4.812 1.143 7.137 2.166 1.894.833 3.159 2.616 5.024 3.445 1.958.87 3.328 2.767 5.198 3.806 1.21.672 2.129 1.76 3.25 2.507M237.172 226.416c-.487 1.568-1.285 2.969-1.95 4.446-.398.886-1.171 1.95-1.206 2.94-.039 1.086-.571 2.054-.733 3.104-.024.159-.253.847-.082.619a58.085 58.085 0 001.557-2.197c.542-.797.819-1.756 1.403-2.506.655-.842 1.329-1.585 1.939-2.465.355-.513.526-1.063.836-1.62.162-.292.915-1.746.639-1.011-.417 1.112-1.46 2.088-2.032 3.146-.796 1.473-1.372 2.924-2.042 4.456-.424.97-.872 2.271-.928 3.342-.009.16-.212.994-.042.372a9.517 9.517 0 01.97-2.321c1.493-2.572 2.719-5.289 4.177-7.881.973-1.728 2.221-3.066 3.621-4.466M213.035 282.859c.196 1.42.131 3.072.825 4.363.583 1.082 1.21 2.159 1.816 3.249.405.729 1.514 1.349 2.094 1.929.562.562.997 1.226 1.537 1.826.431.479.936 1.346 1.248 1.908.614 1.105-.231.697-.836.093-1.212-1.213-2.757-1.987-3.527-3.528M166.247 291.957c-.955 1.84-2.442 3.525-3.156 5.487-.436 1.2-1.07 2.413-1.857 3.425-.262.337-2.638 4.28-2.331 4.414.232.101 1.002-.144 1.31-.144.423 0 .563-.521.733-.836.709-1.317.919-3.033 1.32-4.466.446-1.592 1.32-3.386 1.382-5.054.047-1.267.557-2.508.557-3.755M87.896 227.902c-.582 3.295-2.445 6.287-2.97 9.572-.34 2.119-1.481 4.27-2.507 6.116-.762 1.373-1.872 2.657-2.507 4.085-.279.628-.977 1.117-1.3 1.681-.368.646-1.289 1.069-1.485 1.754-.186.652-1.358 1.618-1.856 2.145-.558.591-1.068 1.184-1.671 1.754-1.126 1.063-2.788 1.956-4.23 2.455-1.734.6-3.388 1.073-5.24 1.073-1.626 0-3.215-.557-4.827-.557"/>
  <path stroke="#000" stroke-linecap="round" stroke-width="5" d="M5.831 203.579c-.432 2.405-1.485 4.588-1.485 7.056 0 1.497.297 3.147.836 4.548.688 1.79 1.034 3.696 1.67 5.478.254.709.355 1.554.692 2.228.409.818.987 1.582 1.402 2.413 1.578 3.155 3.99 6.059 6.24 8.809 1.102 1.346 2.188 2.747 3.55 3.899 1.485 1.257 2.641 2.652 3.991 4.002 1.078 1.078 1.997 2.14 3.074 3.157.433.408.486 1.125.928 1.567.576.576 1.21 1.152 1.857 1.682 2.625 2.147 6.234 2.771 8.706 5.106 1.403 1.325 3.878 2.099 5.631 2.785 2.146.839 4.662 1.356 6.911 1.856 1.954.434 3.841.743 5.849.743 1.035 0 2.05.157 3.063.186.634.018 1.318.083 1.857-.186"/>
  <path stroke="#000" stroke-linecap="round" stroke-width="5" d="M3.418 211.006c.322-1.789.742-3.57.742-5.384 0-1.472-.18-2.818-.36-4.26-.252-2.013-.197-4.194-.197-6.22 0-.913-.277-1.787-.175-2.703.11-.988.24-1.98.35-2.97.396-3.559.197-7.121.197-10.687v-6.405-2.764c0-.462.218-1.415-.268-.65-.415.652-.451 1.985-.475 2.723-.053 1.661-.395 3.31-.371 4.972.023 1.62.185 3.236.185 4.868 0 1.316-.151 2.741.042 4.044.808 5.458-.042 11.036-.042 16.524 0 3.452.69 6.865 1.527 10.212.194.774.641 1.587.701 2.372.044.571.357-.728.372-.928.186-2.513-.186-4.88-.186-7.386"/>
  <path stroke="#000" stroke-linecap="round" stroke-width="5" d="M3.418 174.615c-.558-2.929-.743-5.895-.743-8.87 0-2.566.743-5.127.743-7.737 0-2.027.626-3.908 1.114-5.858.461-1.846.883-3.809 1.568-5.57.374-.963.736-1.953 1.072-2.93.296-.856.577-2.082 1.073-2.826"/>
  <path stroke="#000" stroke-linecap="round" stroke-width="5" d="M12.887 119.844c-.859 1.133-2.198 2.19-2.868 3.434-.591 1.099-.977 2.422-1.31 3.621-1.031 3.712-1.423 7.802-1.95 11.614-.303 2.2-.928 4.342-.928 6.581 0 .985.041 1.923-.227 2.827-.55 1.855-.515 3.963-.515 5.9M68.03 130.241c-1.319-1.793-2.107-3.963-3.714-5.57-.66-.661-2.228-2.308-2.228-3.249 0-.527-.901-1.716-.288-.929.5.644 1.097 1.087 1.68 1.671 1.123 1.123 2.507 1.99 3.663 3.105.2.193 1.46 1.464 1.217.887-.366-.869-.816-1.746-1.114-2.64-.407-1.221-1.646-2.493-2.847-2.93-.304-.11-1.9-1.015-1.836-.722.211.986.644 1.964.918 2.95.3 1.083.078 2.371.557 3.425.264.581.464 1.693.464 2.331M11.92 134.913c-.708 3.807-.916 7.436-.916 11.303 0 .257.147 2.715-.153 2.715-.385 0 .431-4.667.458-5.057.239-3.392.967-13.564.611-10.182-.13 1.231-.686 2.507-.916 3.733-.178.948-1.085 6.189-.306 2.614.478-2.191.917-4.246.917-6.5 0-1.557.723-5.942-.17-4.667-.917 1.31-.917 3.912-1.205 5.447-.527 2.814-1.075 5.638-1.374 8.486-.368 3.495-.853 7.061-.917 10.573-.068 3.728-.3 8.079-1.222 11.709-.218.861-.786 3.464-.594 2.597.496-2.231 1.522-4.312 1.952-6.619.125-.671.96-5.304.458-2.291-.839 5.033-2.475 9.998-3.462 15.019-1.662 8.458-.957 17.028 1.103 25.27.729 2.913.946 5.926 1.612 8.858.507 2.228 1.11 4.487 1.392 6.738.216 1.724.443 4.356 1.052 5.94.47 1.223.464 2.735 1.392 3.818 1.33 1.553 2.652 3.975 3.411 5.872.959 2.397 3.983 3.473 5.889 4.955 2.048 1.593 4.01 4.338 6.5 5.295 1.138.438 1.757 1.636 2.664 2.342.563.438 2.424 1.227 2.698 1.867.198.46-1.601.566-1.866.373-.202-.146-1.208-1.039-.68-.305.957 1.328 2.607 1.706 3.904 2.511.77.478 1.221 1.154 2.138 1.46 1.093.364 2.25 1.343 3.276 2.053 1.223.847 2.79 1.259 4.14 1.85 3.476 1.521 6.317 2.58 10.064 2.58 1.188 0 2.78.739 3.971.237.488-.205 1.084-.084 1.528-.305.535-.268.739-.913 1.221-1.154M190.486 23.942c-1.013-.23-4.229-2.402-5.274-1.642-1.029.749-.981-1.887 0-2.287 1.475-.601 2.451-.484 3.875.054.725.274 1.324.345 1.991.727.306.174.506.365.862.484"/>
  <path stroke="#000" stroke-linecap="round" stroke-width="5" d="M183.463 16.676c-2.585-1.072-5.424-1.695-8.221-1.695h-.862 3.028c2.948 0 5.407 1.013 7.965 2.408 1.976 1.078 4.196 2.094 5.84 3.647 1.68 1.586 3.285 3.391 5.207 4.723 1.394.964 2.354 2.285 3.7 3.27 2.242 1.637 4.051 3.551 6.351 5.085M224.557 237.208c-1.454 4.848-3.295 9.551-4.614 14.449-.126.469-.986 6.589-.317 4.181.622-2.238 1.102-4.461 1.817-6.69.226-.708 1.386-4.846.403-2.192-.361.974-.749 2.656-1.182 1.096-.559-2.013-1.081-5.65-.519-7.672.589-2.12.259 1.412.259 2.019 0 2.641-.011 5.205.635 7.787.546 2.183.726.605 1.182-.865.176-.567 2.762-7.762 3.605-6.316 1.01 1.731-.14 5.876.173 7.988.419 2.827-.016.388.231-1.038.058-.334.997-3.938.635-3.576-1.34 1.34-2.044 3.483-3.057 5.076-.056.087.345 3.462 1.153 1.846 1.266-2.533 2.448-5.05 3.23-7.787.76-2.66 2.926-4.766 4.038-7.268 1.057-2.379-1.668 4.144-2.192 5.191-1.294 2.587-1.536-4.967-1.211-6.229.089-.347 1.257-2.784.663-1.241-.832 2.165-1.759 3.954-3.086 5.884-1.461 2.125-.288 7.082-.288 9.777 0 4.404-3.44 4.462-6.23 1.673M157.365 23.71c-1.53.22-3.122-.087-4.67.194-.924.168-1.905.724-2.855.724-.75 0-1.812.446-2.529.694-.876.303-1.774.474-2.651.734-2.364.7-4.799 1.24-7.116 2.14-2.087.813-3.917 1.877-5.873 2.856-.661.33-1.129.934-1.754 1.274-.478.261-1.748 1.31-.714.276 1.149-1.15 1.807-2.438 3.202-3.385 1.376-.935 2.718-2.033 4.404-2.346 1.71-.316 3.429-.928 5.139-1.141 2.208-.277 4.414-.353 6.617-.643 1.978-.26 4.053-.092 6.047-.092.704 0 2.167.024 2.753-.367"/>
</svg>
