<svg xmlns="http://www.w3.org/2000/svg" height="35" fill="none" viewBox="0 0 281 84">
  <path stroke="#000" stroke-linecap="round" stroke-width="4" d="M165.529 18c-11.2 0-12.667 14.667-12 22l1 14c.666 4.167 4.2 12.4 13 12 8.8-.4 11-17.5 11-26 .333-7.333-1.8-22-13-22zM240.029 3l-14.5 7.5 15.5 43-10.5 20.5 14.5 5 33-70-14.5-6-14.5 31-9-31zM203.529 46.5v-25c6.333-.833 18.9.5 18.5 12.5-.4 12-12.5 13.333-18.5 12.5z"/>
  <path stroke="#000" stroke-linecap="round" stroke-width="4" d="M164.028 3.5c-20-1-22.5 16.5-23 18.5-1 11.833-1.8 37.7 3 46.5 6 11 18 10.5 20 11s19.5-1 25-12.5 0-45 0-49-5-13.5-25-14.5zM105.029 60c-1.2-8.4.5-25.833 1.5-33.5 5-13.5 19.5-5.5 21 0s1.5 15 2 24-3 13.5-6 16-17 4-18.5-6.5z"/>
  <path stroke="#000" stroke-linecap="round" stroke-width="4" d="M116.529 5.5c-12.4 0-18.834 7.333-20.5 11l-2 51c2.5 5.833 11.1 16.6 25.5 13 18-4.5 21.5-14 21-22.5s-1.5-37-1.5-39-7-13.5-22.5-13.5zM47.529 43V6.5h16l17 47-2-47 16 1.5-1.5 71h-14.5l-18-45.5 2 42h-15V43z"/>
  <path stroke="#000" stroke-linecap="round" stroke-width="4" d="M38.529 6c2.5 1 7.5 3 8 3.5.833 3.333 2 10.1 0 10.5-2.5.5-3.5 8-4 7.5s-6-5-7-6.5-10-6-14.5.5.5 9.5 4.5 11.5 11 2 17 6.5 6.5 7.5 6.5 9.5v11c0 4.5-7.5 13.5-12 15s-20.5 2.5-27.5-1-8.5-6-7-8 4.5-8 4.5-10.5.5-1 4 2 11 6.5 19.5 4.5 7-5.5 6.5-8-4.5-4-6.5-4.5-15.5-5-19-9-5.5-9-6-13 1-10 1.5-11.5 3-6.5 8-9 8-2.5 11.5-3 9.5 1 12 2zM187.529 7v4.5l3 68.5 13.5-1.5-1-18.5c4.666 1.667 16 2.9 24-5.5 10-10.5 7.5-22 5-30.5s-5-10-12-15.5c-5.6-4.4-24-2.833-32.5-1.5z"/>
</svg>
